<?xml version="1.0" encoding="UTF-8" standalone="no"?>
<svg
   xmlns:dc="http://purl.org/dc/elements/1.1/"
   xmlns:cc="http://creativecommons.org/ns#"
   xmlns:rdf="http://www.w3.org/1999/02/22-rdf-syntax-ns#"
   xmlns:svg="http://www.w3.org/2000/svg"
   xmlns="http://www.w3.org/2000/svg"
   width="288"
   height="51"
   viewBox="0 0 287.99999 51"
   id="svg2"
   version="1.1">
  <defs
     id="defs4" />
  <metadata
     id="metadata7">
    <rdf:RDF>
      <cc:Work
         rdf:about="">
        <dc:format>image/svg+xml</dc:format>
        <dc:type
           rdf:resource="http://purl.org/dc/dcmitype/StillImage" />
        <dc:title></dc:title>
      </cc:Work>
    </rdf:RDF>
  </metadata>
  <g
     transform="matrix(0.5434557,0,0,0.5434557,-76.23342,-259.06594)"
     id="layer1">
    <g
       style="font-style:normal;font-weight:normal;font-size:52.29875946px;line-height:125%;font-family:sans-serif;letter-spacing:0px;word-spacing:0px;fill:#000000;fill-opacity:1;stroke:none;stroke-width:1px;stroke-linecap:butt;stroke-linejoin:miter;stroke-opacity:1"
       id="text4136">
      <path
         d="m 149.11212,484.86908 10.19826,0 0,36.60913 -10.19826,0 0,-36.60913 z"
         style="font-style:normal;font-variant:normal;font-weight:900;font-stretch:normal;font-family:'Gotham Black';-inkscape-font-specification:'Gotham Black,  Heavy'"
         id="path4197" />
      <path
         d="m 179.87278,511.33225 q 2.51034,0 4.1316,-1.56896 1.62126,-1.56896 1.62126,-3.92241 l 0,-0.1046 q 0,-2.35344 -1.62126,-3.8701 -1.62126,-1.56897 -4.1316,-1.56897 -2.56264,0 -4.1839,1.56897 -1.62126,1.56896 -1.62126,3.9224 l 0,0.1046 q 0,2.35344 1.62126,3.92241 1.62126,1.51666 4.1839,1.51666 z m -0.57529,18.61836 q -4.1316,0 -7.63562,-0.83678 -3.45172,-0.83678 -6.53734,-2.40574 l 3.19022,-6.58965 q 2.30115,1.25517 4.65459,1.93506 2.35345,0.73218 5.22988,0.73218 3.76551,0 5.59596,-1.77816 1.83046,-1.77816 1.83046,-5.17758 l 0,-1.09827 q -1.51666,1.72586 -3.55631,2.98103 -2.03966,1.25517 -5.17758,1.25517 -2.61494,0 -4.91609,-0.88908 -2.24884,-0.94138 -3.9747,-2.61494 -1.67356,-1.72586 -2.66724,-4.1316 -0.99367,-2.45804 -0.99367,-5.49137 l 0,-0.1046 q 0,-3.03332 0.99367,-5.49137 0.99368,-2.45804 2.66724,-4.1316 1.67356,-1.72586 3.87011,-2.61494 2.24884,-0.94137 4.70689,-0.94137 3.19022,0 5.22987,1.15057 2.03965,1.15057 3.66091,2.82413 l 0,-3.34712 9.93677,0 0,21.49479 q 0,3.92241 -0.88908,6.69424 -0.88908,2.71954 -2.77183,4.60229 -1.93506,1.93506 -4.96839,2.92873 -3.03332,1.04598 -7.47872,1.04598 z"
         style="font-style:normal;font-variant:normal;font-weight:900;font-stretch:normal;font-family:'Gotham Black';-inkscape-font-specification:'Gotham Black,  Heavy'"
         id="path4199" />
      <path
         d="m 200.72854,493.18458 9.93677,0 0,5.70057 q 1.20287,-2.87644 3.29482,-4.60229 2.09195,-1.72586 5.64826,-1.56897 l 0,10.45975 -0.83678,0 q -3.9224,0 -6.01435,2.30115 -2.09195,2.30115 -2.09195,7.21723 l 0,8.78619 -9.93677,0 0,-28.29363 z"
         style="font-style:normal;font-variant:normal;font-weight:900;font-stretch:normal;font-family:'Gotham Black';-inkscape-font-specification:'Gotham Black,  Heavy'"
         id="path4201" />
      <path
         d="m 241.19389,505.0041 q -0.26149,-2.35344 -1.56896,-3.71321 -1.30747,-1.41207 -3.34712,-1.41207 -1.98736,0 -3.24253,1.41207 -1.25517,1.35977 -1.67356,3.71321 l 9.83217,0 z m -4.0793,17.15399 q -3.34712,0 -6.11896,-1.04597 -2.77183,-1.09827 -4.81148,-2.98103 -1.98736,-1.93505 -3.13793,-4.65459 -1.09827,-2.71954 -1.09827,-6.01436 l 0,-0.10459 q 0,-3.08563 1.04597,-5.75287 1.04598,-2.71953 2.92873,-4.70689 1.93506,-2.03965 4.54999,-3.19022 2.61494,-1.15057 5.75287,-1.15057 3.66091,0 6.32815,1.25517 2.71953,1.25517 4.44539,3.39942 1.77816,2.09195 2.61494,4.91608 0.88908,2.77183 0.88908,5.90976 0,0.47069 0,0.99368 0,0.52298 -0.0523,1.04597 l -18.93215,0 q 0.57529,2.35345 2.14425,3.50402 1.62126,1.15057 3.9747,1.15057 1.77816,0 3.24253,-0.67988 1.51666,-0.67989 3.03333,-2.19655 l 5.49136,4.54999 q -2.03965,2.61494 -5.07297,4.1839 -2.98103,1.56896 -7.21723,1.56896 z"
         style="font-style:normal;font-variant:normal;font-weight:900;font-stretch:normal;font-family:'Gotham Black';-inkscape-font-specification:'Gotham Black,  Heavy'"
         id="path4203" />
      <path
         d="m 254.81609,530.00291 q -1.20288,0 -2.19655,-0.1569 -0.99368,-0.1046 -1.88276,-0.20919 l 0,-6.58965 q 0.31379,0.0523 0.67989,0.0523 0.31379,0 0.62758,0 1.46437,0 2.19655,-0.73218 0.73218,-0.73218 0.73218,-2.56264 l 0,-26.62007 9.93677,0 0,27.03846 q 0,2.66724 -0.67989,4.54999 -0.67988,1.88276 -1.98735,3.03333 -1.25517,1.15057 -3.13793,1.67356 -1.88275,0.52299 -4.28849,0.52299 z m -0.0523,-46.70279 10.35515,0 0,7.32182 -10.35515,0 0,-7.32182 z"
         style="font-style:normal;font-variant:normal;font-weight:900;font-stretch:normal;font-family:'Gotham Black';-inkscape-font-specification:'Gotham Black,  Heavy'"
         id="path4205" />
      <path
         d="m 282.25904,515.88224 q 2.19655,0 3.55632,-1.25517 1.35977,-1.25517 1.35977,-3.39942 l 0,-1.30747 q -0.73219,-0.31379 -1.77816,-0.52298 -0.99368,-0.2092 -2.09195,-0.2092 -2.19655,0 -3.39942,0.99368 -1.15057,0.94138 -1.15057,2.51034 l 0,0.1046 q 0,1.46436 0.99367,2.30114 0.99368,0.78448 2.51034,0.78448 z m -3.55631,6.22356 q -2.03965,0 -3.76551,-0.57529 -1.72586,-0.57529 -3.03333,-1.67356 -1.25517,-1.09828 -1.98735,-2.71954 -0.73219,-1.62126 -0.73219,-3.76551 l 0,-0.10459 q 0,-2.19655 0.78449,-3.87011 0.83678,-1.67356 2.24884,-2.77184 1.46437,-1.09827 3.50402,-1.67356 2.03965,-0.57528 4.54999,-0.57528 1.98735,0 3.76551,0.36609 1.83046,0.31379 3.03333,0.73218 l 0,-0.47069 q 0,-2.19655 -1.41207,-3.39942 -1.35976,-1.20287 -4.2362,-1.20287 -2.24884,0 -4.0793,0.41839 -1.83046,0.41839 -3.71321,1.15057 l -2.03965,-7.00803 q 2.40574,-0.99368 5.07298,-1.56896 2.71953,-0.62759 6.38045,-0.62759 3.8178,0 6.43274,0.88908 2.66724,0.88908 4.3408,2.56264 1.62126,1.56896 2.30115,3.81781 0.73218,2.19655 0.73218,5.17758 l 0,16.26491 -9.83217,0 0,-2.92873 q -1.46436,1.62126 -3.50402,2.61494 -1.98735,0.94138 -4.81148,0.94138 z"
         style="font-style:normal;font-variant:normal;font-weight:900;font-stretch:normal;font-family:'Gotham Black';-inkscape-font-specification:'Gotham Black,  Heavy'"
         id="path4207" />
      <path
         d="m 334.76454,513.3196 q 2.35345,0 3.60862,-0.83678 1.25517,-0.88908 1.25517,-2.51034 l 0,-0.10459 q 0,-1.51667 -1.20287,-2.40575 -1.20288,-0.88908 -3.76552,-0.88908 l -7.74021,0 0,6.74654 7.84481,0 z m -1.46436,-13.85917 q 2.35344,0 3.55631,-0.78448 1.25517,-0.78448 1.25517,-2.40574 l 0,-0.1046 q 0,-1.51666 -1.15057,-2.30114 -1.15057,-0.83678 -3.45172,-0.83678 l -6.58964,0 0,6.43274 6.38045,0 z m -16.26492,-14.59135 18.77526,0 q 3.45172,0 5.90976,0.83678 2.45804,0.83678 4.0793,2.45804 1.09827,1.09827 1.72586,2.56264 0.62758,1.46437 0.62758,3.34712 l 0,0.1046 q 0,3.19022 -1.62126,5.17758 -1.56896,1.93505 -4.027,2.98102 3.34712,1.09828 5.28217,3.19023 1.98736,2.03965 1.98736,5.75286 l 0,0.1046 q 0,4.75919 -3.66092,7.42642 -3.60861,2.66724 -10.19825,2.66724 l -18.87986,0 0,-36.60913 z"
         style="font-style:normal;font-variant:normal;font-weight:900;font-stretch:normal;font-family:'Gotham Black';-inkscape-font-specification:'Gotham Black,  Heavy'"
         id="path4209" />
      <path
         d="m 365.50804,515.88224 q 2.19654,0 3.55631,-1.25517 1.35977,-1.25517 1.35977,-3.39942 l 0,-1.30747 q -0.73218,-0.31379 -1.77816,-0.52298 -0.99367,-0.2092 -2.09195,-0.2092 -2.19655,0 -3.39942,0.99368 -1.15057,0.94138 -1.15057,2.51034 l 0,0.1046 q 0,1.46436 0.99368,2.30114 0.99367,0.78448 2.51034,0.78448 z m -3.55632,6.22356 q -2.03965,0 -3.76551,-0.57529 -1.72586,-0.57529 -3.03333,-1.67356 -1.25517,-1.09828 -1.98735,-2.71954 -0.73218,-1.62126 -0.73218,-3.76551 l 0,-0.10459 q 0,-2.19655 0.78448,-3.87011 0.83678,-1.67356 2.24885,-2.77184 1.46436,-1.09827 3.50401,-1.67356 2.03965,-0.57528 4.54999,-0.57528 1.98736,0 3.76551,0.36609 1.83046,0.31379 3.03333,0.73218 l 0,-0.47069 q 0,-2.19655 -1.41206,-3.39942 -1.35977,-1.20287 -4.2362,-1.20287 -2.24885,0 -4.07931,0.41839 -1.83045,0.41839 -3.71321,1.15057 l -2.03965,-7.00803 q 2.40574,-0.99368 5.07298,-1.56896 2.71954,-0.62759 6.38045,-0.62759 3.81781,0 6.43275,0.88908 2.66723,0.88908 4.34079,2.56264 1.62126,1.56896 2.30115,3.81781 0.73218,2.19655 0.73218,5.17758 l 0,16.26491 -9.83217,0 0,-2.92873 q -1.46436,1.62126 -3.50401,2.61494 -1.98736,0.94138 -4.81149,0.94138 z"
         style="font-style:normal;font-variant:normal;font-weight:900;font-stretch:normal;font-family:'Gotham Black';-inkscape-font-specification:'Gotham Black,  Heavy'"
         id="path4211" />
      <path
         d="m 396.44847,522.0535 q -4.49769,0 -7.00803,-2.14425 -2.51034,-2.14425 -2.51034,-7.21723 l 0,-11.50573 -3.34712,0 0,-8.00171 3.34712,0 0,-7.16493 9.93676,0 0,7.16493 6.58965,0 0,8.00171 -6.58965,0 0,9.57067 q 0,1.51667 0.67989,2.19655 0.67988,0.62759 2.03965,0.62759 0.99367,0 1.93505,-0.2615 0.94138,-0.26149 1.83046,-0.67988 l 0,7.79252 q -1.35977,0.73218 -3.08563,1.15057 -1.72586,0.47069 -3.81781,0.47069 z"
         style="font-style:normal;font-variant:normal;font-weight:900;font-stretch:normal;font-family:'Gotham Black';-inkscape-font-specification:'Gotham Black,  Heavy'"
         id="path4213" />
      <path
         d="m 407.9877,493.18458 9.93676,0 0,28.29363 -9.93676,0 0,-28.29363 z m -0.2092,-9.88446 10.35516,0 0,7.32182 -10.35516,0 0,-7.32182 z"
         style="font-style:normal;font-variant:normal;font-weight:900;font-stretch:normal;font-family:'Gotham Black';-inkscape-font-specification:'Gotham Black,  Heavy'"
         id="path4215" />
      <path
         d="m 434.75324,522.1058 q -3.60862,0 -7.00804,-0.99368 -3.39942,-1.04598 -6.38045,-3.19023 l 3.71322,-6.01435 q 2.45804,1.62126 4.96838,2.45804 2.56264,0.78448 4.75919,0.78448 2.51034,0 2.51034,-1.51666 l 0,-0.1046 q 0,-0.83678 -1.15058,-1.30747 -1.15057,-0.47069 -3.39942,-1.09827 -2.09195,-0.52299 -3.9224,-1.20288 -1.83046,-0.73218 -3.19023,-1.72585 -1.35977,-1.04598 -2.14425,-2.51034 -0.78448,-1.46437 -0.78448,-3.60862 l 0,-0.1046 q 0,-2.24884 0.83678,-3.9747 0.88908,-1.77816 2.40574,-2.92873 1.51667,-1.20287 3.55632,-1.83046 2.09195,-0.62758 4.54999,-0.62758 3.13793,0 6.17126,0.88907 3.03332,0.83678 5.49137,2.40575 l -3.39942,6.27585 q -2.19655,-1.20287 -4.4454,-1.88276 -2.24884,-0.73218 -3.92241,-0.73218 -1.15057,0 -1.72585,0.41839 -0.57529,0.36609 -0.57529,0.94138 l 0,0.1046 q 0,0.83678 1.15057,1.35976 1.20287,0.47069 3.45172,1.15058 2.09195,0.57528 3.92241,1.30746 1.83045,0.67989 3.19022,1.72586 1.35977,0.99368 2.14425,2.45805 0.78448,1.46436 0.78448,3.50401 l 0,0.1046 q 0,2.35344 -0.83678,4.1316 -0.83678,1.72586 -2.35344,2.92873 -1.51667,1.20287 -3.66092,1.77816 -2.14424,0.62759 -4.70688,0.62759 z"
         style="font-style:normal;font-variant:normal;font-weight:900;font-stretch:normal;font-family:'Gotham Black';-inkscape-font-specification:'Gotham Black,  Heavy'"
         id="path4217" />
      <path
         d="m 461.61765,522.0535 q -4.4977,0 -7.00804,-2.14425 -2.51034,-2.14425 -2.51034,-7.21723 l 0,-11.50573 -3.34712,0 0,-8.00171 3.34712,0 0,-7.16493 9.93677,0 0,7.16493 6.58964,0 0,8.00171 -6.58964,0 0,9.57067 q 0,1.51667 0.67988,2.19655 0.67988,0.62759 2.03965,0.62759 0.99368,0 1.93506,-0.2615 0.94137,-0.26149 1.83045,-0.67988 l 0,7.79252 q -1.35976,0.73218 -3.08562,1.15057 -1.72586,0.47069 -3.81781,0.47069 z"
         style="font-style:normal;font-variant:normal;font-weight:900;font-stretch:normal;font-family:'Gotham Black';-inkscape-font-specification:'Gotham Black,  Heavy'"
         id="path4219" />
      <path
         d="m 484.61029,515.88224 q 2.19654,0 3.55631,-1.25517 1.35977,-1.25517 1.35977,-3.39942 l 0,-1.30747 q -0.73218,-0.31379 -1.77816,-0.52298 -0.99367,-0.2092 -2.09195,-0.2092 -2.19655,0 -3.39942,0.99368 -1.15057,0.94138 -1.15057,2.51034 l 0,0.1046 q 0,1.46436 0.99368,2.30114 0.99367,0.78448 2.51034,0.78448 z m -3.55632,6.22356 q -2.03965,0 -3.76551,-0.57529 -1.72586,-0.57529 -3.03333,-1.67356 -1.25517,-1.09828 -1.98735,-2.71954 -0.73218,-1.62126 -0.73218,-3.76551 l 0,-0.10459 q 0,-2.19655 0.78448,-3.87011 0.83678,-1.67356 2.24884,-2.77184 1.46437,-1.09827 3.50402,-1.67356 2.03965,-0.57528 4.54999,-0.57528 1.98736,0 3.76551,0.36609 1.83046,0.31379 3.03333,0.73218 l 0,-0.47069 q 0,-2.19655 -1.41206,-3.39942 -1.35977,-1.20287 -4.2362,-1.20287 -2.24885,0 -4.07931,0.41839 -1.83045,0.41839 -3.71321,1.15057 l -2.03965,-7.00803 q 2.40574,-0.99368 5.07298,-1.56896 2.71953,-0.62759 6.38045,-0.62759 3.81781,0 6.43274,0.88908 2.66724,0.88908 4.3408,2.56264 1.62126,1.56896 2.30115,3.81781 0.73218,2.19655 0.73218,5.17758 l 0,16.26491 -9.83217,0 0,-2.92873 q -1.46436,1.62126 -3.50401,2.61494 -1.98736,0.94138 -4.81149,0.94138 z"
         style="font-style:normal;font-variant:normal;font-weight:900;font-stretch:normal;font-family:'Gotham Black';-inkscape-font-specification:'Gotham Black,  Heavy'"
         id="path4221" />
      <path
         d="m 533.76866,522.1058 q -4.91608,0 -9.36147,-1.51667 -4.3931,-1.51666 -7.79252,-4.54999 l 5.64827,-6.74654 q 5.49137,4.3931 11.87182,4.3931 2.03965,0 3.08562,-0.62759 1.09828,-0.67988 1.09828,-1.88276 l 0,-0.10459 q 0,-0.57529 -0.2615,-0.99368 -0.26149,-0.47069 -0.99367,-0.88908 -0.67989,-0.41839 -1.88276,-0.78448 -1.15057,-0.41839 -3.03333,-0.83678 -2.92873,-0.67988 -5.43907,-1.46436 -2.51034,-0.83678 -4.39309,-2.09196 -1.83046,-1.30746 -2.92873,-3.19022 -1.04598,-1.93505 -1.04598,-4.75919 l 0,-0.10459 q 0,-2.56264 0.94138,-4.70689 0.99367,-2.14425 2.82413,-3.71321 1.88276,-1.56897 4.49769,-2.40575 2.61494,-0.88908 5.90976,-0.88908 4.70689,0 8.36781,1.25517 3.71321,1.20288 6.69424,3.60862 l -5.07298,7.16493 q -2.51034,-1.77816 -5.17758,-2.66724 -2.61494,-0.94138 -5.07298,-0.94138 -1.83046,0 -2.77183,0.67989 -0.88908,0.67988 -0.88908,1.67356 l 0,0.1046 q 0,0.62758 0.26149,1.09827 0.31379,0.47069 0.99368,0.88908 0.73218,0.36609 1.93505,0.78448 1.25517,0.36609 3.13793,0.78448 3.13792,0.67989 5.64826,1.62126 2.56264,0.88908 4.3408,2.19655 1.77816,1.30747 2.71954,3.19023 0.94137,1.83045 0.94137,4.39309 l 0,0.1046 q 0,2.82413 -1.09827,5.02068 -1.04598,2.19655 -2.98103,3.76551 -1.93505,1.51666 -4.65459,2.35344 -2.71954,0.78449 -6.06666,0.78449 z"
         style="font-style:normal;font-variant:normal;font-weight:900;font-stretch:normal;font-family:'Gotham Black';-inkscape-font-specification:'Gotham Black,  Heavy'"
         id="path4223" />
      <path
         d="m 571.02338,505.0041 q -0.26149,-2.35344 -1.56896,-3.71321 -1.30747,-1.41207 -3.34712,-1.41207 -1.98736,0 -3.24253,1.41207 -1.25517,1.35977 -1.67356,3.71321 l 9.83217,0 z m -4.0793,17.15399 q -3.34712,0 -6.11896,-1.04597 -2.77183,-1.09827 -4.81148,-2.98103 -1.98736,-1.93505 -3.13793,-4.65459 -1.09827,-2.71954 -1.09827,-6.01436 l 0,-0.10459 q 0,-3.08563 1.04597,-5.75287 1.04598,-2.71953 2.92873,-4.70689 1.93506,-2.03965 4.54999,-3.19022 2.61494,-1.15057 5.75287,-1.15057 3.66091,0 6.32815,1.25517 2.71953,1.25517 4.44539,3.39942 1.77816,2.09195 2.61494,4.91608 0.88908,2.77183 0.88908,5.90976 0,0.47069 0,0.99368 0,0.52298 -0.0523,1.04597 l -18.93215,0 q 0.57529,2.35345 2.14425,3.50402 1.62126,1.15057 3.9747,1.15057 1.77816,0 3.24253,-0.67988 1.51666,-0.67989 3.03333,-2.19655 l 5.49137,4.54999 q -2.03966,2.61494 -5.07298,4.1839 -2.98103,1.56896 -7.21723,1.56896 z"
         style="font-style:normal;font-variant:normal;font-weight:900;font-stretch:normal;font-family:'Gotham Black';-inkscape-font-specification:'Gotham Black,  Heavy'"
         id="path4225" />
      <path
         d="m 596.25589,515.88224 q 2.19654,0 3.55631,-1.25517 1.35977,-1.25517 1.35977,-3.39942 l 0,-1.30747 q -0.73218,-0.31379 -1.77816,-0.52298 -0.99368,-0.2092 -2.09195,-0.2092 -2.19655,0 -3.39942,0.99368 -1.15057,0.94138 -1.15057,2.51034 l 0,0.1046 q 0,1.46436 0.99368,2.30114 0.99367,0.78448 2.51034,0.78448 z m -3.55632,6.22356 q -2.03965,0 -3.76551,-0.57529 -1.72586,-0.57529 -3.03333,-1.67356 -1.25517,-1.09828 -1.98735,-2.71954 -0.73218,-1.62126 -0.73218,-3.76551 l 0,-0.10459 q 0,-2.19655 0.78448,-3.87011 0.83678,-1.67356 2.24884,-2.77184 1.46437,-1.09827 3.50402,-1.67356 2.03965,-0.57528 4.54999,-0.57528 1.98736,0 3.76551,0.36609 1.83046,0.31379 3.03333,0.73218 l 0,-0.47069 q 0,-2.19655 -1.41207,-3.39942 -1.35976,-1.20287 -4.23619,-1.20287 -2.24885,0 -4.07931,0.41839 -1.83045,0.41839 -3.71321,1.15057 l -2.03965,-7.00803 q 2.40574,-0.99368 5.07298,-1.56896 2.71953,-0.62759 6.38045,-0.62759 3.81781,0 6.43274,0.88908 2.66724,0.88908 4.3408,2.56264 1.62126,1.56896 2.30115,3.81781 0.73218,2.19655 0.73218,5.17758 l 0,16.26491 -9.83217,0 0,-2.92873 q -1.46436,1.62126 -3.50401,2.61494 -1.98736,0.94138 -4.81149,0.94138 z"
         style="font-style:normal;font-variant:normal;font-weight:900;font-stretch:normal;font-family:'Gotham Black';-inkscape-font-specification:'Gotham Black,  Heavy'"
         id="path4227" />
      <path
         d="m 615.95209,493.18458 9.93676,0 0,5.70057 q 1.20287,-2.87644 3.29482,-4.60229 2.09195,-1.72586 5.64827,-1.56897 l 0,10.45975 -0.83678,0 q -3.92241,0 -6.01436,2.30115 -2.09195,2.30115 -2.09195,7.21723 l 0,8.78619 -9.93676,0 0,-28.29363 z"
         style="font-style:normal;font-variant:normal;font-weight:900;font-stretch:normal;font-family:'Gotham Black';-inkscape-font-specification:'Gotham Black,  Heavy'"
         id="path4229" />
      <path
         d="m 649.98468,515.88224 q 2.19654,0 3.55631,-1.25517 1.35977,-1.25517 1.35977,-3.39942 l 0,-1.30747 q -0.73218,-0.31379 -1.77816,-0.52298 -0.99368,-0.2092 -2.09195,-0.2092 -2.19655,0 -3.39942,0.99368 -1.15057,0.94138 -1.15057,2.51034 l 0,0.1046 q 0,1.46436 0.99368,2.30114 0.99367,0.78448 2.51034,0.78448 z m -3.55632,6.22356 q -2.03965,0 -3.76551,-0.57529 -1.72586,-0.57529 -3.03333,-1.67356 -1.25517,-1.09828 -1.98735,-2.71954 -0.73218,-1.62126 -0.73218,-3.76551 l 0,-0.10459 q 0,-2.19655 0.78448,-3.87011 0.83678,-1.67356 2.24884,-2.77184 1.46437,-1.09827 3.50402,-1.67356 2.03965,-0.57528 4.54999,-0.57528 1.98736,0 3.76551,0.36609 1.83046,0.31379 3.03333,0.73218 l 0,-0.47069 q 0,-2.19655 -1.41206,-3.39942 -1.35977,-1.20287 -4.2362,-1.20287 -2.24885,0 -4.07931,0.41839 -1.83045,0.41839 -3.71321,1.15057 l -2.03965,-7.00803 q 2.40574,-0.99368 5.07298,-1.56896 2.71953,-0.62759 6.38045,-0.62759 3.81781,0 6.43274,0.88908 2.66724,0.88908 4.3408,2.56264 1.62126,1.56896 2.30115,3.81781 0.73218,2.19655 0.73218,5.17758 l 0,16.26491 -9.83217,0 0,-2.92873 q -1.46436,1.62126 -3.50401,2.61494 -1.98736,0.94138 -4.81149,0.94138 z"
         style="font-style:normal;font-variant:normal;font-weight:900;font-stretch:normal;font-family:'Gotham Black';-inkscape-font-specification:'Gotham Black,  Heavy'"
         id="path4231" />
    </g>
    <g
       style="font-style:normal;font-weight:normal;font-size:67.54003906px;line-height:125%;font-family:sans-serif;letter-spacing:0px;word-spacing:0px;fill:#000000;fill-opacity:1;stroke:none;stroke-width:1px;stroke-linecap:butt;stroke-linejoin:miter;stroke-opacity:1"
       id="text4140">
      <path
         d="m 261.92031,543.27566 5.323,0 0,14.54222 9.30153,0 0,4.66448 -14.62453,0 0,-19.2067 z"
         style="font-style:normal;font-variant:normal;font-weight:900;font-stretch:normal;font-size:27.43814087px;font-family:'Gotham Black';-inkscape-font-specification:'Gotham Black, Heavy'"
         id="path4164" />
      <path
         d="m 283.43825,562.81162 q -2.38712,0 -3.73159,-1.45422 -1.31703,-1.45422 -1.31703,-4.00597 l 0,-9.7131 5.21324,0 0,8.03937 q 0,1.23472 0.57621,1.8658 0.5762,0.63107 1.53653,0.63107 0.9329,0 1.53654,-0.63107 0.63107,-0.63108 0.63107,-1.8658 l 0,-8.03937 5.21325,0 0,14.84403 -5.21325,0 0,-2.03042 q -0.71339,0.9329 -1.78348,1.64629 -1.07008,0.71339 -2.66149,0.71339 z"
         style="font-style:normal;font-variant:normal;font-weight:900;font-stretch:normal;font-size:27.43814087px;font-family:'Gotham Black';-inkscape-font-specification:'Gotham Black, Heavy'"
         id="path4166" />
      <path
         d="m 303.51653,557.15936 q 1.31703,0 2.16762,-0.82314 0.85058,-0.82315 0.85058,-2.05786 l 0,-0.0549 q 0,-1.23472 -0.85058,-2.03042 -0.85059,-0.82315 -2.16762,-0.82315 -1.34447,0 -2.19505,0.82315 -0.85058,0.82314 -0.85058,2.05786 l 0,0.0549 q 0,1.23472 0.85058,2.05787 0.85058,0.7957 2.19505,0.7957 z m -0.30182,9.76798 q -2.16761,0 -4.00597,-0.43901 -1.81091,-0.43901 -3.42976,-1.26216 l 1.67372,-3.4572 q 1.20728,0.65851 2.442,1.01521 1.23471,0.38413 2.74381,0.38413 1.97555,0 2.93588,-0.93289 0.96034,-0.9329 0.96034,-2.71638 l 0,-0.5762 q -0.79571,0.90546 -1.8658,1.56397 -1.07008,0.65852 -2.71637,0.65852 -1.37191,0 -2.57919,-0.46645 -1.17984,-0.49388 -2.08529,-1.37191 -0.87803,-0.90545 -1.39935,-2.16761 -0.52132,-1.28959 -0.52132,-2.881 l 0,-0.0549 q 0,-1.59141 0.52132,-2.881 0.52132,-1.2896 1.39935,-2.16762 0.87802,-0.90546 2.03042,-1.3719 1.17984,-0.49389 2.46943,-0.49389 1.67373,0 2.74381,0.60364 1.07009,0.60364 1.92067,1.48166 l 0,-1.75604 5.21325,0 0,11.27707 q 0,2.05786 -0.46645,3.51208 -0.46645,1.42679 -1.45422,2.41456 -1.01521,1.01521 -2.60662,1.53654 -1.59141,0.54876 -3.92366,0.54876 z"
         style="font-style:normal;font-variant:normal;font-weight:900;font-stretch:normal;font-size:27.43814087px;font-family:'Gotham Black';-inkscape-font-specification:'Gotham Black, Heavy'"
         id="path4168" />
      <path
         d="m 320.57706,559.54648 q 1.1524,0 1.86579,-0.65852 0.71339,-0.65851 0.71339,-1.78347 l 0,-0.68596 q -0.38413,-0.16463 -0.9329,-0.27438 -0.52132,-0.10975 -1.09752,-0.10975 -1.1524,0 -1.78348,0.52132 -0.60364,0.49389 -0.60364,1.31703 l 0,0.0549 q 0,0.76827 0.52133,1.20728 0.52132,0.41157 1.31703,0.41157 z m -1.8658,3.26514 q -1.07008,0 -1.97554,-0.30182 -0.90546,-0.30182 -1.59142,-0.87802 -0.65851,-0.5762 -1.04264,-1.42678 -0.38414,-0.85059 -0.38414,-1.97555 l 0,-0.0549 q 0,-1.1524 0.41157,-2.03042 0.43901,-0.87802 1.17984,-1.45422 0.76827,-0.5762 1.83836,-0.87802 1.07009,-0.30182 2.38712,-0.30182 1.04265,0 1.97554,0.19207 0.96034,0.16462 1.59142,0.38413 l 0,-0.24694 q 0,-1.15241 -0.74083,-1.78348 -0.7134,-0.63108 -2.22249,-0.63108 -1.17984,0 -2.14018,0.21951 -0.96033,0.2195 -1.94811,0.60363 l -1.07008,-3.67671 q 1.26215,-0.52132 2.6615,-0.82314 1.42678,-0.32926 3.34745,-0.32926 2.00298,0 3.37489,0.46645 1.39934,0.46645 2.27737,1.34447 0.85058,0.82314 1.20727,2.00298 0.38414,1.15241 0.38414,2.71638 l 0,8.53326 -5.15837,0 0,-1.53654 q -0.76827,0.85059 -1.83836,1.37191 -1.04265,0.49389 -2.52431,0.49389 z"
         style="font-style:normal;font-variant:normal;font-weight:900;font-stretch:normal;font-size:27.43814087px;font-family:'Gotham Black';-inkscape-font-specification:'Gotham Black, Heavy'"
         id="path4170" />
      <path
         d="m 330.91051,547.63833 5.21325,0 0,2.99075 q 0.63108,-1.50909 1.7286,-2.41455 1.09753,-0.90546 2.96332,-0.82315 l 0,5.48763 -0.43901,0 q -2.05786,0 -3.15538,1.20728 -1.09753,1.20728 -1.09753,3.78646 l 0,4.60961 -5.21325,0 0,-14.84403 z"
         style="font-style:normal;font-variant:normal;font-weight:900;font-stretch:normal;font-size:27.43814087px;font-family:'Gotham Black';-inkscape-font-specification:'Gotham Black, Heavy'"
         id="path4172" />
      <path
         d="m 357.85691,558.44895 q 0.63108,0 1.17984,-0.24694 0.54876,-0.24694 0.96034,-0.68595 0.41157,-0.46645 0.63107,-1.07009 0.24695,-0.63108 0.24695,-1.37191 l 0,-0.0549 q 0,-0.74083 -0.24695,-1.34447 -0.2195,-0.60364 -0.63107,-1.04265 -0.41158,-0.46645 -0.96034,-0.71339 -0.54876,-0.24695 -1.17984,-0.24695 -0.63108,0 -1.17984,0.24695 -0.54876,0.24694 -0.96033,0.68595 -0.41158,0.43901 -0.65852,1.07009 -0.24694,0.60364 -0.24694,1.34447 l 0,0.0549 q 0,0.74083 0.24694,1.37191 0.24694,0.60364 0.65852,1.07009 0.41157,0.43901 0.96033,0.68595 0.54876,0.24694 1.17984,0.24694 z m -1.59141,4.36267 q -1.31703,0 -2.52431,-0.52133 -1.17984,-0.54876 -2.0853,-1.53653 -0.87802,-0.98778 -1.42678,-2.41456 -0.52133,-1.42678 -0.52133,-3.21026 l 0,-0.0549 q 0,-1.81091 0.52133,-3.2377 0.52132,-1.45422 1.42678,-2.44199 0.90546,-1.01521 2.0853,-1.53654 1.17984,-0.54876 2.49687,-0.54876 1.67373,0 2.74381,0.65851 1.07009,0.63108 1.81092,1.48166 l 0,-6.99672 5.21325,0 0,20.02984 -5.21325,0 0,-1.97555 q -0.76827,0.9329 -1.81092,1.61886 -1.04264,0.68595 -2.71637,0.68595 z"
         style="font-style:normal;font-variant:normal;font-weight:900;font-stretch:normal;font-size:27.43814087px;font-family:'Gotham Black';-inkscape-font-specification:'Gotham Black, Heavy'"
         id="path4174" />
      <path
         d="m 378.29233,553.83935 q -0.1372,-1.23472 -0.82315,-1.94811 -0.68595,-0.74083 -1.75604,-0.74083 -1.04265,0 -1.70116,0.74083 -0.65852,0.71339 -0.87803,1.94811 l 5.15838,0 z m -2.14018,8.99971 q -1.75604,0 -3.21026,-0.54877 -1.45422,-0.5762 -2.52431,-1.56397 -1.04265,-1.01521 -1.64629,-2.44199 -0.5762,-1.42679 -0.5762,-3.15539 l 0,-0.0549 q 0,-1.61885 0.54876,-3.01819 0.54877,-1.42679 1.53654,-2.46944 1.01521,-1.07008 2.38712,-1.67372 1.3719,-0.60364 3.01819,-0.60364 1.92067,0 3.32002,0.65851 1.42678,0.65852 2.33224,1.78348 0.9329,1.09753 1.37191,2.57919 0.46644,1.45422 0.46644,3.10051 0,0.24694 0,0.52132 0,0.27438 -0.0274,0.54877 l -9.93261,0 q 0.30182,1.23471 1.12496,1.83835 0.85059,0.60364 2.0853,0.60364 0.9329,0 1.70117,-0.3567 0.7957,-0.35669 1.59141,-1.1524 l 2.881,2.38712 q -1.07008,1.37191 -2.6615,2.19505 -1.56397,0.82315 -3.78646,0.82315 z"
         style="font-style:normal;font-variant:normal;font-weight:900;font-stretch:normal;font-size:27.43814087px;font-family:'Gotham Black';-inkscape-font-specification:'Gotham Black, Heavy'"
         id="path4176" />
      <path
         d="m 402.15836,552.49488 q 1.37191,0 2.11274,-0.60364 0.74083,-0.63108 0.74083,-1.67373 l 0,-0.0549 q 0,-1.15241 -0.76827,-1.70117 -0.76827,-0.5762 -2.11274,-0.5762 l -3.48464,0 0,4.60961 3.51208,0 z m -8.83508,-9.21922 9.08203,0 q 2.22248,0 3.75902,0.54877 1.53654,0.54876 2.49687,1.53653 1.70117,1.64629 1.70117,4.47242 l 0,0.0549 q 0,2.22249 -1.07009,3.67672 -1.07009,1.45422 -2.88101,2.22248 l 4.58217,6.69491 -6.14614,0 -3.86878,-5.81689 -0.0549,0 -2.27737,0 0,5.81689 -5.323,0 0,-19.2067 z"
         style="font-style:normal;font-variant:normal;font-weight:900;font-stretch:normal;font-size:27.43814087px;font-family:'Gotham Black';-inkscape-font-specification:'Gotham Black, Heavy'"
         id="path4178" />
      <path
         d="m 422.23622,553.83935 q -0.13719,-1.23472 -0.82315,-1.94811 -0.68595,-0.74083 -1.75604,-0.74083 -1.04265,0 -1.70116,0.74083 -0.65852,0.71339 -0.87802,1.94811 l 5.15837,0 z m -2.14018,8.99971 q -1.75604,0 -3.21026,-0.54877 -1.45422,-0.5762 -2.52431,-1.56397 -1.04265,-1.01521 -1.64629,-2.44199 -0.5762,-1.42679 -0.5762,-3.15539 l 0,-0.0549 q 0,-1.61885 0.54877,-3.01819 0.54876,-1.42679 1.53653,-2.46944 1.01521,-1.07008 2.38712,-1.67372 1.37191,-0.60364 3.0182,-0.60364 1.92067,0 3.32001,0.65851 1.42678,0.65852 2.33224,1.78348 0.9329,1.09753 1.37191,2.57919 0.46645,1.45422 0.46645,3.10051 0,0.24694 0,0.52132 0,0.27438 -0.0274,0.54877 l -9.93261,0 q 0.30182,1.23471 1.12497,1.83835 0.85058,0.60364 2.0853,0.60364 0.93289,0 1.70116,-0.3567 0.79571,-0.35669 1.59141,-1.1524 l 2.88101,2.38712 q -1.07009,1.37191 -2.6615,2.19505 -1.56398,0.82315 -3.78647,0.82315 z"
         style="font-style:normal;font-variant:normal;font-weight:900;font-stretch:normal;font-size:27.43814087px;font-family:'Gotham Black';-inkscape-font-specification:'Gotham Black, Heavy'"
         id="path4180" />
      <path
         d="m 436.51692,562.83906 q -1.67372,0 -3.10051,-0.60364 -1.42678,-0.63108 -2.46943,-1.67373 -1.01521,-1.04265 -1.61885,-2.44199 -0.5762,-1.42679 -0.5762,-2.99076 l 0,-0.0549 q 0,-1.56397 0.5762,-2.96332 0.60364,-1.42678 1.64629,-2.46943 1.04265,-1.07009 2.49687,-1.67373 1.48166,-0.63107 3.2377,-0.63107 2.3048,0 3.84134,0.90546 1.53654,0.90545 2.49687,2.41455 l -3.53952,2.63406 q -0.54876,-0.74083 -1.17984,-1.1524 -0.63108,-0.41157 -1.59141,-0.41157 -0.63108,0 -1.17984,0.27438 -0.52133,0.24694 -0.90546,0.71339 -0.38414,0.43901 -0.60364,1.04265 -0.21951,0.5762 -0.21951,1.26216 l 0,0.0549 q 0,0.71339 0.21951,1.34447 0.2195,0.60364 0.60364,1.07009 0.38413,0.43901 0.9329,0.71339 0.54876,0.24694 1.20727,0.24694 0.9329,0 1.56398,-0.41157 0.65851,-0.41157 1.28959,-1.12496 l 3.48464,2.52431 q -1.04264,1.53653 -2.60662,2.46943 -1.56397,0.9329 -4.00597,0.9329 z"
         style="font-style:normal;font-variant:normal;font-weight:900;font-stretch:normal;font-size:27.43814087px;font-family:'Gotham Black';-inkscape-font-specification:'Gotham Black, Heavy'"
         id="path4182" />
      <path
         d="m 452.57808,558.42152 q 0.71339,0 1.28959,-0.24695 0.57621,-0.27438 0.96034,-0.71339 0.41157,-0.46645 0.63108,-1.07009 0.2195,-0.60364 0.2195,-1.26215 l 0,-0.0549 q 0,-0.68595 -0.24694,-1.28959 -0.21951,-0.60364 -0.65852,-1.04265 -0.41157,-0.46645 -0.98777,-0.74083 -0.5762,-0.27438 -1.26215,-0.27438 -0.7134,0 -1.2896,0.27438 -0.5762,0.24694 -0.98777,0.71339 -0.38413,0.43901 -0.60364,1.04265 -0.2195,0.60364 -0.2195,1.26216 l 0,0.0549 q 0,0.68596 0.2195,1.2896 0.24694,0.60363 0.65852,1.07008 0.43901,0.43901 1.01521,0.71339 0.5762,0.27439 1.26215,0.27439 z m -0.0549,4.41754 q -1.78348,0 -3.29258,-0.60364 -1.48166,-0.60364 -2.57919,-1.64629 -1.09752,-1.07009 -1.70116,-2.46943 -0.60364,-1.39935 -0.60364,-2.99076 l 0,-0.0549 q 0,-1.59141 0.60364,-2.99075 0.63108,-1.42679 1.7286,-2.46944 1.09753,-1.07008 2.60663,-1.67372 1.50909,-0.63108 3.29257,-0.63108 1.78348,0 3.26514,0.63108 1.5091,0.60364 2.60662,1.64628 1.09753,1.04265 1.70117,2.442 0.60364,1.39934 0.60364,2.99076 l 0,0.0549 q 0,1.59141 -0.63108,3.0182 -0.60364,1.39934 -1.70116,2.46943 -1.09753,1.04265 -2.60663,1.67373 -1.50909,0.60364 -3.29257,0.60364 z"
         style="font-style:normal;font-variant:normal;font-weight:900;font-stretch:normal;font-size:27.43814087px;font-family:'Gotham Black';-inkscape-font-specification:'Gotham Black, Heavy'"
         id="path4184" />
      <path
         d="m 462.95657,547.63833 5.21324,0 0,2.03042 q 0.71339,-0.9329 1.78348,-1.64629 1.07009,-0.71339 2.63406,-0.71339 1.48166,0 2.57919,0.63108 1.09752,0.63107 1.70116,1.78348 0.96034,-1.12497 2.14018,-1.75605 1.17984,-0.65851 2.82613,-0.65851 2.38711,0 3.73158,1.42678 1.34447,1.39935 1.34447,4.00597 l 0,9.74054 -5.21324,0 0,-8.06681 q 0,-1.23472 -0.54877,-1.83836 -0.54876,-0.63108 -1.48166,-0.63108 -0.93289,0 -1.53653,0.63108 -0.60364,0.60364 -0.60364,1.83836 l 0,8.06681 -5.21325,0 0,-8.06681 q 0,-1.23472 -0.54876,-1.83836 -0.54876,-0.63108 -1.48166,-0.63108 -0.9329,0 -1.53654,0.63108 -0.5762,0.60364 -0.5762,1.83836 l 0,8.06681 -5.21324,0 0,-14.84403 z"
         style="font-style:normal;font-variant:normal;font-weight:900;font-stretch:normal;font-size:27.43814087px;font-family:'Gotham Black';-inkscape-font-specification:'Gotham Black, Heavy'"
         id="path4186" />
      <path
         d="m 499.08445,553.83935 q -0.13719,-1.23472 -0.82314,-1.94811 -0.68595,-0.74083 -1.75604,-0.74083 -1.04265,0 -1.70116,0.74083 -0.65852,0.71339 -0.87803,1.94811 l 5.15837,0 z m -2.14017,8.99971 q -1.75604,0 -3.21026,-0.54877 -1.45422,-0.5762 -2.52431,-1.56397 -1.04265,-1.01521 -1.64629,-2.44199 -0.5762,-1.42679 -0.5762,-3.15539 l 0,-0.0549 q 0,-1.61885 0.54876,-3.01819 0.54876,-1.42679 1.53654,-2.46944 1.01521,-1.07008 2.38712,-1.67372 1.3719,-0.60364 3.01819,-0.60364 1.92067,0 3.32002,0.65851 1.42678,0.65852 2.33224,1.78348 0.9329,1.09753 1.37191,2.57919 0.46644,1.45422 0.46644,3.10051 0,0.24694 0,0.52132 0,0.27438 -0.0274,0.54877 l -9.93261,0 q 0.30182,1.23471 1.12496,1.83835 0.85059,0.60364 2.0853,0.60364 0.9329,0 1.70117,-0.3567 0.7957,-0.35669 1.59141,-1.1524 l 2.881,2.38712 q -1.07008,1.37191 -2.6615,2.19505 -1.56397,0.82315 -3.78646,0.82315 z"
         style="font-style:normal;font-variant:normal;font-weight:900;font-stretch:normal;font-size:27.43814087px;font-family:'Gotham Black';-inkscape-font-specification:'Gotham Black, Heavy'"
         id="path4188" />
      <path
         d="m 508.67322,565.47312 2.22249,-3.0182 q -1.17984,-0.38413 -2.16761,-1.09752 -0.96034,-0.71339 -1.67373,-1.67373 -0.68595,-0.96033 -1.07009,-2.11274 -0.38413,-1.1524 -0.38413,-2.44199 l 0,-0.0549 q 0,-1.56397 0.5762,-2.96332 0.60364,-1.42678 1.64629,-2.46943 1.04265,-1.07009 2.49687,-1.67373 1.48166,-0.63107 3.2377,-0.63107 2.3048,0 3.84134,0.90546 1.53654,0.90545 2.49687,2.41455 l -3.53952,2.63406 q -0.54876,-0.74083 -1.17984,-1.1524 -0.63108,-0.41157 -1.59141,-0.41157 -0.63108,0 -1.17984,0.27438 -0.52133,0.24694 -0.90546,0.71339 -0.38413,0.43901 -0.60364,1.04265 -0.2195,0.5762 -0.2195,1.26216 l 0,0.0549 q 0,0.71339 0.2195,1.34447 0.21951,0.60364 0.60364,1.07009 0.38413,0.43901 0.9329,0.71339 0.54876,0.24694 1.20727,0.24694 0.9329,0 1.56398,-0.41157 0.65851,-0.41157 1.28959,-1.12496 l 3.48465,2.52431 q -0.9329,1.3719 -2.24993,2.27736 -1.31703,0.87802 -3.34746,1.07009 l -1.56397,4.44498 -4.14316,-1.75604 z"
         style="font-style:normal;font-variant:normal;font-weight:900;font-stretch:normal;font-size:27.43814087px;font-family:'Gotham Black';-inkscape-font-specification:'Gotham Black, Heavy'"
         id="path4190" />
      <path
         d="m 529.42632,558.42152 q 0.71339,0 1.28959,-0.24695 0.5762,-0.27438 0.96034,-0.71339 0.41157,-0.46645 0.63107,-1.07009 0.21951,-0.60364 0.21951,-1.26215 l 0,-0.0549 q 0,-0.68595 -0.24695,-1.28959 -0.2195,-0.60364 -0.65851,-1.04265 -0.41157,-0.46645 -0.98777,-0.74083 -0.5762,-0.27438 -1.26216,-0.27438 -0.71339,0 -1.28959,0.27438 -0.5762,0.24694 -0.98777,0.71339 -0.38414,0.43901 -0.60364,1.04265 -0.21951,0.60364 -0.21951,1.26216 l 0,0.0549 q 0,0.68596 0.21951,1.2896 0.24694,0.60363 0.65851,1.07008 0.43901,0.43901 1.01521,0.71339 0.5762,0.27439 1.26216,0.27439 z m -0.0549,4.41754 q -1.78348,0 -3.29257,-0.60364 -1.48166,-0.60364 -2.57919,-1.64629 -1.09753,-1.07009 -1.70116,-2.46943 -0.60364,-1.39935 -0.60364,-2.99076 l 0,-0.0549 q 0,-1.59141 0.60364,-2.99075 0.63107,-1.42679 1.7286,-2.46944 1.09752,-1.07008 2.60662,-1.67372 1.5091,-0.63108 3.29258,-0.63108 1.78348,0 3.26514,0.63108 1.50909,0.60364 2.60662,1.64628 1.09753,1.04265 1.70117,2.442 0.60363,1.39934 0.60363,2.99076 l 0,0.0549 q 0,1.59141 -0.63107,3.0182 -0.60364,1.39934 -1.70117,2.46943 -1.09752,1.04265 -2.60662,1.67373 -1.5091,0.60364 -3.29258,0.60364 z"
         style="font-style:normal;font-variant:normal;font-weight:900;font-stretch:normal;font-size:27.43814087px;font-family:'Gotham Black';-inkscape-font-specification:'Gotham Black, Heavy'"
         id="path4192" />
      <path
         d="m 545.704,562.81162 q -1.89323,0 -3.67671,-0.52133 -1.78348,-0.54876 -3.34745,-1.67372 l 1.94811,-3.15539 q 1.28959,0.85058 2.60662,1.28959 1.34447,0.41158 2.49687,0.41158 1.31703,0 1.31703,-0.79571 l 0,-0.0549 q 0,-0.43901 -0.60364,-0.68595 -0.60364,-0.24694 -1.78348,-0.5762 -1.09752,-0.27438 -2.05786,-0.63108 -0.96033,-0.38413 -1.67372,-0.90546 -0.7134,-0.54876 -1.12497,-1.31703 -0.41157,-0.76827 -0.41157,-1.89323 l 0,-0.0549 q 0,-1.17984 0.43901,-2.08529 0.46645,-0.9329 1.26215,-1.53654 0.79571,-0.63108 1.8658,-0.96034 1.09752,-0.32925 2.38712,-0.32925 1.64628,0 3.2377,0.46645 1.59141,0.43901 2.881,1.26215 l -1.78348,3.29258 q -1.1524,-0.63108 -2.33224,-0.98778 -1.17984,-0.38413 -2.05786,-0.38413 -0.60364,0 -0.90546,0.2195 -0.30182,0.19207 -0.30182,0.49389 l 0,0.0549 q 0,0.43901 0.60364,0.71339 0.63108,0.24694 1.81092,0.60364 1.09752,0.30182 2.05786,0.68595 0.96033,0.3567 1.67373,0.90546 0.71339,0.52133 1.12496,1.28959 0.41157,0.76827 0.41157,1.83836 l 0,0.0549 q 0,1.23471 -0.43901,2.16761 -0.43901,0.90546 -1.23472,1.53653 -0.7957,0.63108 -1.92067,0.9329 -1.12496,0.32926 -2.46943,0.32926 z"
         style="font-style:normal;font-variant:normal;font-weight:900;font-stretch:normal;font-size:27.43814087px;font-family:'Gotham Black';-inkscape-font-specification:'Gotham Black, Heavy'"
         id="path4194" />
    </g>
  </g>
</svg>
