<!-- Generator: Adobe Illustrator 19.2.1, SVG Export Plug-In  -->
<svg version="1.1"
	 xmlns="http://www.w3.org/2000/svg" xmlns:xlink="http://www.w3.org/1999/xlink" xmlns:a="http://ns.adobe.com/AdobeSVGViewerExtensions/3.0/"
	 x="0px" y="0px" width="162.239px" height="67.703px" viewBox="0 0 162.239 67.703"
	 style="enable-background:new 0 0 162.239 67.703;" xml:space="preserve">
<style type="text/css">
	.st0{fill:#FFFFFF;}
</style>
<defs>
</defs>
<g>
	<g>
		<path class="st0" d="M38.858,32.769c0-3.495-0.702-6.119-1.943-7.772c-1.639-2.237-4.21-3.153-6.8-3.153
			c-2.932,0-5.164,0.916-6.8,3.153c-1.261,1.652-1.937,4.305-1.937,7.8l-0.006,11.629c0,3.476,0.601,5.877,1.862,7.513
			c1.637,2.23,4.29,3.412,6.881,3.412s5.291-1.182,6.93-3.412c1.241-1.636,1.813-4.037,1.813-7.513V32.769 M32.705,45.074
			c0.324,3.238-0.681,4.845-2.591,4.845c-1.91,0-2.914-1.607-2.59-4.845V32.121c-0.324-3.238,0.68-4.756,2.591-4.756
			s2.918,1.518,2.594,4.756L32.705,45.074z"/>
		<path class="st0" d="M14.572,36.979v17.81H8.095v-17.81c0,0-6.711-21.835-8.095-25.905h6.8l4.545,17.057l4.522-17.057h6.8
			L14.572,36.979"/>
	</g>
	<g>
		<path class="st0" d="M60.554,54.788h-6.153v-3.562c-2.332,2.673-4.31,4.024-6.465,4.024c-1.891,0-3.204-0.892-3.862-2.504
			c-0.4-0.98-0.683-2.51-0.683-4.758V22.083h6.153v24.286c0,1.374,0,1.943,0,2.267c0.143,0.909,0.529,1.241,1.312,1.241
			c1.178,0,2.243-1.023,3.545-2.86V22.083h6.153V54.788"/>
		<g>
			<path class="st0" d="M123.834,27.285c-0.965,0-2.071,0.509-3.051,1.477L120.777,48.4c0.981,0.98,2.093,1.477,3.058,1.477
				c1.691,0,2.454-1.241,2.454-4.479V31.474C126.288,28.235,125.525,27.285,123.834,27.285"/>
			<g>
				<path class="st0" d="M147.984,31.177c0-2.993-0.774-3.892-2.717-3.892c-1.958,0-2.788,0.825-2.788,3.852v3.581l5.505-0.006
					V31.177"/>
				<path class="st0" d="M161.274,14.605c0,0-0.945-6.633-3.844-9.555c-3.677-3.834-7.799-3.853-9.689-4.077
					C134.21,0,113.914,0,113.914,0h-0.042c0,0-20.297,0-33.828,0.974c-1.89,0.224-6.011,0.244-9.689,4.077
					c-2.899,2.921-3.843,9.555-3.843,9.555s-0.967,7.789-0.967,15.579v7.303c0,7.789,0.967,15.578,0.967,15.578
					s0.944,6.633,3.843,9.555c3.678,3.835,8.51,3.713,10.662,4.114c7.736,0.739,32.876,0.968,32.876,0.968s20.318-0.03,33.849-1.004
					c1.89-0.225,6.012-0.244,9.689-4.078c2.899-2.921,3.844-9.555,3.844-9.555s0.966-7.789,0.966-15.578v-7.303
					C162.239,22.395,161.274,14.605,161.274,14.605 M86.783,54.788h-6.476V17.55h-6.8v-6.146l20.4-0.007v6.153h-7.124V54.788z
					 M110.098,54.788h-6.153v-3.562c-2.332,2.673-4.31,4.024-6.465,4.024c-1.891,0-3.204-0.892-3.862-2.504
					c-0.4-0.98-0.683-2.51-0.683-4.758V22.407h6.153v23.962c0,1.374,0,1.943,0,2.267c0.143,0.909,0.529,1.241,1.312,1.241
					c1.178,0,2.243-1.023,3.545-2.86v-24.61h6.153V54.788z M132.441,45.074c0,2.993-0.256,5.105-0.648,6.476
					c-0.782,2.406-2.488,3.656-4.823,3.656c-2.084,0-4.22-1.254-6.179-3.678l-0.008,3.26h-5.829V11.397h5.829l-0.007,14.147
					c1.894-2.33,4.037-3.657,6.194-3.657c2.334,0,3.904,1.348,4.686,3.772c0.391,1.301,0.784,3.397,0.784,6.462V45.074z
					 M145.321,49.877c1.443,0,2.285-0.785,2.619-2.352c0.054-0.32,0.044-1.718,0.044-4.07h6.152v0.918
					c0,1.889-0.155,3.226-0.208,3.813c-0.198,1.299-0.658,2.475-1.371,3.512c-1.622,2.35-4.027,3.508-7.09,3.508
					c-3.067,0-5.401-1.104-7.096-3.315c-1.245-1.619-2.044-4.026-2.044-7.465V33.093c0-3.458,0.727-6.132,1.972-7.768
					c1.695-2.214,4.03-3.386,7.023-3.386c2.941,0,5.275,1.172,6.919,3.386c1.226,1.637,1.907,4.167,1.907,7.625l0.001,6.62h-11.669
					v5.815C142.459,48.372,143.309,49.877,145.321,49.877z"/>
			</g>
		</g>
	</g>
</g>
</svg>